<svg width="446.853" height="446.853" xmlns="http://www.w3.org/2000/svg">

 <g>
  <title>background</title>
  <rect fill="none" id="canvas_background" height="402" width="582" y="-1" x="-1"/>
 </g>
 <g>
  <title>Layer 1</title>
  <g id="svg_1">
   <g id="svg_2">
    <path stroke="#fff" id="svg_3" fill="#000" d="m444.274,93.36c-2.558,-3.666 -6.674,-5.932 -11.145,-6.123l-277.187,-11.948c-7.953,-0.348 -14.599,5.792 -14.939,13.708c-0.338,7.913 5.792,14.599 13.707,14.939l258.421,11.14l-50.811,158.534l-226.115,0l-40.851,-222.431c-0.898,-4.875 -4.245,-8.942 -8.861,-10.753l-66.907,-26.285c-7.374,-2.887 -15.695,0.735 -18.591,8.1c-2.891,7.369 0.73,15.695 8.1,18.591l59.491,23.371l41.572,226.335c1.253,6.804 7.183,11.746 14.104,11.746l6.896,0l-15.747,43.74c-1.318,3.664 -0.775,7.733 1.468,10.916c2.24,3.184 5.883,5.078 9.772,5.078l11.045,0c-6.844,7.617 -11.045,17.646 -11.045,28.675c0,23.718 19.299,43.012 43.012,43.012s43.012,-19.294 43.012,-43.012c0,-11.028 -4.201,-21.058 -11.044,-28.675l93.777,0c-6.847,7.617 -11.047,17.646 -11.047,28.675c0,23.718 19.294,43.012 43.012,43.012c23.719,0 43.012,-19.294 43.012,-43.012c0,-11.028 -4.2,-21.058 -11.042,-28.675l13.432,0c6.6,0 11.948,-5.349 11.948,-11.947c0,-6.6 -5.349,-11.948 -11.948,-11.948l-229.124,0l12.902,-35.843l216.221,0c6.235,0 11.752,-4.028 13.651,-9.96l59.739,-186.387c1.372,-4.254 0.668,-8.905 -1.89,-12.573zm-274.61,316.454c-10.543,0 -19.117,-8.573 -19.117,-19.116s8.574,-19.117 19.117,-19.117s19.116,8.574 19.116,19.117s-8.573,19.116 -19.116,19.116zm157.709,0c-10.543,0 -19.116,-8.573 -19.116,-19.116s8.573,-19.117 19.116,-19.117s19.116,8.574 19.116,19.117s-8.573,19.116 -19.116,19.116z"/>
   </g>
   <g id="svg_4"/>
   <g id="svg_5"/>
   <g id="svg_6"/>
   <g id="svg_7"/>
   <g id="svg_8"/>
   <g id="svg_9"/>
   <g id="svg_10"/>
   <g id="svg_11"/>
   <g id="svg_12"/>
   <g id="svg_13"/>
   <g id="svg_14"/>
   <g id="svg_15"/>
   <g id="svg_16"/>
   <g id="svg_17"/>
   <g id="svg_18"/>
  </g>
 </g>
</svg>